<svg width="60" height="24" viewBox="0 0 60 24" fill="none" xmlns="http://www.w3.org/2000/svg">
<path d="M26.1599 10.8627H24.3567V16.9349H22.2734V10.8627H21.1259V9.85864L22.2734 9.29854V8.73845C22.2734 7.86871 22.4874 7.23348 22.9155 6.83277C23.3435 6.43205 24.0288 6.23169 24.9714 6.23169C25.6909 6.23169 26.3307 6.3387 26.8908 6.55272L26.358 8.08273C25.9391 7.95068 25.552 7.88465 25.1968 7.88465C24.9009 7.88465 24.6868 7.97344 24.5548 8.15103C24.4227 8.32407 24.3567 8.5472 24.3567 8.82041V9.29854H26.1599V10.8627Z" fill="#2F2E41"/>
<path d="M32.1889 16.9349L31.9089 15.9582H31.7996C31.5764 16.3134 31.26 16.5889 30.8501 16.7847C30.4403 16.9759 29.9736 17.0715 29.4499 17.0715C28.5528 17.0715 27.8766 16.8325 27.4213 16.3544C26.9659 15.8717 26.7382 15.1795 26.7382 14.2779V9.29854H28.8215V13.7588C28.8215 14.3098 28.9194 14.7242 29.1152 15.0019C29.311 15.2751 29.6229 15.4118 30.051 15.4118C30.6338 15.4118 31.055 15.2182 31.3146 14.8312C31.5742 14.4396 31.7039 13.7929 31.7039 12.8913V9.29854H33.7872V16.9349H32.1889Z" fill="#2F2E41"/>
<path d="M40.7178 14.6672C40.7178 15.4505 40.4446 16.047 39.8981 16.4568C39.3563 16.8666 38.5435 17.0715 37.4597 17.0715C36.9042 17.0715 36.4306 17.0328 36.039 16.9554C35.6474 16.8826 35.2808 16.7733 34.9393 16.6276V14.9063C35.3263 15.0885 35.7612 15.241 36.2439 15.3639C36.7311 15.4869 37.1592 15.5484 37.528 15.5484C38.2839 15.5484 38.6618 15.3298 38.6618 14.8926C38.6618 14.7287 38.6118 14.5967 38.5116 14.4965C38.4114 14.3917 38.2384 14.2756 37.9925 14.1481C37.7466 14.0161 37.4187 13.8635 37.0089 13.6905C36.4215 13.4446 35.9889 13.2169 35.7111 13.0075C35.4379 12.798 35.2375 12.5589 35.11 12.2903C34.9871 12.017 34.9256 11.6824 34.9256 11.2862C34.9256 10.6077 35.1874 10.084 35.7111 9.7152C36.2393 9.3418 36.9861 9.1551 37.9515 9.1551C38.8713 9.1551 39.7661 9.35546 40.6358 9.75618L40.0074 11.2589C39.6249 11.0949 39.2675 10.9606 38.9351 10.8559C38.6026 10.7511 38.2634 10.6988 37.9173 10.6988C37.3026 10.6988 36.9952 10.865 36.9952 11.1974C36.9952 11.3841 37.0931 11.5457 37.2889 11.6824C37.4893 11.819 37.9242 12.0216 38.5935 12.2903C39.1901 12.5316 39.6272 12.757 39.905 12.9665C40.1828 13.1759 40.3877 13.4173 40.5197 13.6905C40.6518 13.9637 40.7178 14.2893 40.7178 14.6672Z" fill="#2F2E41"/>
<path d="M44.9231 10.6373C44.4814 10.6373 44.1353 10.7785 43.8848 11.0608C43.6344 11.3386 43.4909 11.7347 43.4545 12.2493H46.3779C46.3688 11.7347 46.2345 11.3386 45.9749 11.0608C45.7154 10.7785 45.3648 10.6373 44.9231 10.6373ZM45.2168 17.0715C43.9873 17.0715 43.0265 16.7323 42.3343 16.0538C41.6422 15.3753 41.2961 14.4145 41.2961 13.1714C41.2961 11.8918 41.6149 10.9037 42.2524 10.207C42.8944 9.50573 43.7801 9.1551 44.9094 9.1551C45.9886 9.1551 46.8287 9.46247 47.4298 10.0772C48.0309 10.6919 48.3314 11.5412 48.3314 12.6249V13.6359H43.4067C43.4295 14.2278 43.6048 14.69 43.9326 15.0224C44.2605 15.3548 44.7204 15.521 45.3124 15.521C45.7723 15.521 46.2072 15.4732 46.617 15.3776C47.0268 15.282 47.4549 15.1294 47.9011 14.92V16.5319C47.5368 16.7141 47.1475 16.8484 46.7331 16.9349C46.3187 17.026 45.8133 17.0715 45.2168 17.0715Z" fill="#2F2E41"/>
<path d="M51.5258 16.9349H49.4425V6.30682H51.5258V16.9349Z" fill="#2F2E41"/>
<path d="M52.0426 9.29854H54.324L55.7652 13.5949C55.8881 13.9683 55.9724 14.41 56.0179 14.92H56.0589C56.109 14.4509 56.2069 14.0092 56.3526 13.5949L57.7665 9.29854H60L56.7693 17.9117C56.4733 18.7086 56.0498 19.3051 55.4988 19.7013C54.9524 20.0974 54.3126 20.2955 53.5795 20.2955C53.2197 20.2955 52.8668 20.2568 52.5207 20.1794V18.5264C52.7712 18.5856 53.0444 18.6152 53.3404 18.6152C53.7092 18.6152 54.0303 18.5014 54.3035 18.2737C54.5812 18.0506 54.7975 17.7113 54.9524 17.256L55.0753 16.8803L52.0426 9.29854Z" fill="#2F2E41"/>
<path d="M8.38624 1.5692C7.48034 1.56943 6.61162 1.88595 5.97104 2.44917C5.33048 3.01239 4.9705 3.77622 4.97023 4.57274V5.93719H3.4184C2.96948 5.93686 2.52488 6.01437 2.11006 6.16528C1.69524 6.31618 1.31833 6.53754 1.00091 6.81666C0.683476 7.09576 0.431756 7.42718 0.260147 7.79191C0.0885383 8.15666 0.000408968 8.54758 0.000801443 8.9423V11.9448H4.96943V14.6737H3.4176C2.51144 14.6736 1.64234 14.99 1.00144 15.5532C0.360538 16.1165 0.000316538 16.8804 0 17.6772V22.8663H3.4192C3.8677 22.8661 4.31175 22.7883 4.72603 22.6371C5.14029 22.486 5.51663 22.2646 5.8336 21.9857C6.15055 21.7067 6.40189 21.3755 6.57328 21.011C6.74465 20.6465 6.83271 20.2561 6.83242 19.8618H6.83679V17.8794L6.82765 17.8804V5.25059L6.83521 5.25216V4.57326C6.83599 4.21126 6.99961 3.86422 7.29035 3.6079C7.58107 3.35158 7.97532 3.2068 8.38704 3.20513H14.3216V4.57326C14.3203 4.9351 14.1561 5.28177 13.865 5.53746C13.5738 5.79315 13.1793 5.93707 12.7678 5.93771H7.53752V7.5754H12.767C13.6729 7.57545 14.5417 7.25909 15.1823 6.69592C15.8229 6.13274 16.1829 5.3689 16.183 4.57239V1.56885L8.38624 1.5692ZM4.97023 10.3069H1.86538V8.94246C1.86606 8.58004 2.02987 8.23259 2.32103 7.97603C2.61218 7.71948 3.007 7.57468 3.4192 7.5733H4.97103L4.97023 10.3069ZM4.97023 19.8633C4.96955 20.2251 4.80588 20.572 4.51505 20.8279C4.22422 21.0839 3.8299 21.2282 3.4184 21.2291H1.86458V17.6781C1.86495 17.316 2.02885 16.9689 2.32021 16.713C2.6116 16.4572 3.00659 16.3135 3.4184 16.3136H4.97023V19.8633ZM7.53752 11.9446H11.4569V13.3105C11.4554 13.6722 11.2911 14.0188 11 14.2744C10.7088 14.5301 10.3145 14.674 9.90305 14.6749H7.53752V16.3136H9.90385C10.3525 16.3139 10.7968 16.2363 11.2114 16.0854C11.6259 15.9346 12.0026 15.7133 12.3198 15.4344C12.6371 15.1554 12.8887 14.8242 13.0603 14.4598C13.2319 14.0953 13.3201 13.7046 13.3199 13.3101H13.3214V10.3066H7.53752V11.9446Z" fill="#6C63FF"/>
</svg>
