<svg width="32" height="33" viewBox="0 0 32 33" fill="none" xmlns="http://www.w3.org/2000/svg">
<rect y="0.539062" width="32" height="32" rx="1" fill="white"/>
<g clip-path="url(#clip0_1_118)">
<path d="M13.0716 14.6134H10.468V22.2379H13.0716V14.6134Z" fill="#9893A3"/>
<path d="M12.6338 11.0551C12.3857 10.9049 12.0941 10.8247 11.7958 10.8247C11.5968 10.8247 11.3997 10.8604 11.2159 10.9298C11.0321 10.9991 10.8653 11.1008 10.7249 11.2289C10.5846 11.357 10.4736 11.509 10.3982 11.6762C10.3228 11.8434 10.2846 12.0225 10.2857 12.2031C10.2874 12.4738 10.3775 12.738 10.5444 12.9624C10.7114 13.1867 10.9478 13.3612 11.2239 13.4637C11.5 13.5662 11.8033 13.5922 12.0957 13.5385C12.388 13.4847 12.6563 13.3535 12.8666 13.1616C13.0769 12.9696 13.2199 12.7254 13.2775 12.4597C13.335 12.1941 13.3046 11.9189 13.1901 11.669C13.0755 11.419 12.882 11.2054 12.6338 11.0551Z" fill="#9893A3"/>
<path d="M17.2508 14.613H14.7427L14.734 22.2533H17.3376V18.4804C17.3376 17.4879 17.5458 16.527 18.8997 16.527C20.2536 16.527 20.2536 17.6691 20.2536 18.5513V22.2375H22.8571V18.055C22.8571 15.9993 22.3277 14.4239 19.7242 14.4239C19.2279 14.4063 18.7358 14.5113 18.3001 14.7277C17.8645 14.9441 17.5018 15.2638 17.2508 15.6527V14.613Z" fill="#9893A3"/>
</g>
<defs>
<clipPath id="clip0_1_118">
<rect x="8.72739" y="10.2361" width="15.5152" height="12.6032" rx="1" fill="white"/>
</clipPath>
</defs>
</svg>
