<svg width="85" height="33" viewBox="0 0 85 33" fill="none" xmlns="http://www.w3.org/2000/svg">
<path d="M0.156311 18.8352H2.67463V29.5703H0.156311V18.8352Z" fill="#9893A3" fill-opacity="0.6"/>
<path fill-rule="evenodd" clip-rule="evenodd" d="M6.89685 22.2866C5.22208 22.8921 4.13209 24.3154 4.13548 25.8922C4.12412 26.9281 4.59302 27.9244 5.43639 28.6562C6.27977 29.388 7.42658 29.7938 8.6181 29.782C10.4319 29.782 12.067 28.8317 12.7603 27.3746C13.4536 25.9175 13.0686 24.2407 11.7848 23.1267C10.501 22.0128 8.57161 21.6812 6.89685 22.2866ZM8.58525 24.2432C9.65403 24.2273 10.5378 24.9632 10.5655 25.8922C10.5938 26.3523 10.3995 26.8018 10.0295 27.1317C9.65959 27.4616 9.14775 27.642 8.61796 27.6291C7.54902 27.6288 6.68016 26.8795 6.67118 25.9502C6.6622 25.021 7.51647 24.2591 8.58525 24.2432Z" fill="#9893A3" fill-opacity="0.6"/>
<path fill-rule="evenodd" clip-rule="evenodd" d="M33.344 29.2373V22.246L30.8677 22.2679V22.9977C30.2646 22.3583 29.3498 22.0039 28.3997 22.0417C26.026 22.0417 24.1018 23.7146 24.1018 25.7782C24.1018 27.8418 26.026 29.5146 28.3997 29.5146C29.3506 29.5559 30.2671 29.2009 30.8677 28.5586V29.2373C30.9164 29.6883 30.7216 30.1335 30.3402 30.4422C29.9588 30.7509 29.4342 30.8881 28.9202 30.8136C28.1316 30.8704 27.3831 30.503 27.0314 29.8868L24.8657 30.9742C25.7122 32.1721 27.257 32.8591 28.8698 32.7549C31.1195 32.7549 33.344 31.7113 33.344 29.2373ZM29.6631 24.0819C30.4251 24.3807 30.9018 25.052 30.8676 25.7781C30.8831 26.248 30.6694 26.7016 30.2792 27.027C29.889 27.3523 29.3587 27.519 28.8193 27.4858C27.9834 27.4852 27.2318 27.043 26.9203 26.3686C26.6088 25.6943 26.8 24.923 27.4033 24.42C28.0067 23.917 28.901 23.7832 29.6631 24.0819Z" fill="#9893A3" fill-opacity="0.6"/>
<path fill-rule="evenodd" clip-rule="evenodd" d="M16.7326 22.3378C15.0578 22.9433 13.9678 24.3665 13.9712 25.9434C13.9598 26.9793 14.4287 27.9755 15.2721 28.7073C16.1155 29.4392 17.2623 29.8449 18.4538 29.8331C20.2676 29.8331 21.9027 28.8828 22.596 27.4257C23.2893 25.9686 22.9043 24.2919 21.6205 23.1779C20.3368 22.0639 18.4073 21.7323 16.7326 22.3378ZM18.421 24.2943C19.4898 24.2784 20.3735 25.0144 20.4012 25.9434H20.3844C20.4125 26.4009 20.2204 26.8479 19.8542 27.1774C19.4879 27.5068 18.9806 27.689 18.4537 27.6803C17.3847 27.6799 16.5159 26.9307 16.5069 26.0014C16.4979 25.0721 17.3522 24.3102 18.421 24.2943Z" fill="#9893A3" fill-opacity="0.6"/>
<path fill-rule="evenodd" clip-rule="evenodd" d="M36.3385 18.9155C35.4947 18.9155 34.8107 19.5102 34.8107 20.2437C34.8153 20.9756 35.4966 21.5679 36.3385 21.5719C37.1823 21.5719 37.8663 20.9773 37.8663 20.2437C37.8663 19.5102 37.1823 18.9155 36.3385 18.9155ZM37.5892 22.2142H35.0709V29.5704H37.5892V22.2142Z" fill="#9893A3" fill-opacity="0.6"/>
<path fill-rule="evenodd" clip-rule="evenodd" d="M47.4819 28.5675C48.2399 27.8373 48.6315 26.8744 48.5698 25.8922C48.6292 24.9114 48.2366 23.9503 47.4788 23.2217C46.7211 22.4931 45.6607 22.057 44.5321 22.0098C43.5812 21.9701 42.659 22.2988 42.0138 22.9074V22.2142H39.4955V32.5333H42.0138V28.8843C42.659 29.4929 43.5812 29.8217 44.5321 29.782C45.6622 29.7348 46.7239 29.2977 47.4819 28.5675ZM44.0203 24.1851C45.1196 24.1771 46.0234 24.9367 46.0513 25.8922H46.0345C46.0744 26.3755 45.872 26.8503 45.4795 27.1944C45.087 27.5384 44.5425 27.7182 43.9863 27.6874C42.8872 27.6632 42.0134 26.8775 42.0227 25.9218C42.032 24.966 42.9209 24.1932 44.0203 24.1851Z" fill="#9893A3" fill-opacity="0.6"/>
<path d="M56.4107 27.3664C56.4107 29.0595 54.7319 29.782 52.8851 29.782C51.3758 29.8982 49.9369 29.2048 49.2503 28.0305L51.4497 26.9431C51.6336 27.4901 52.2312 27.8517 52.8851 27.8116C53.4979 27.8116 53.8001 27.6437 53.8001 27.3518C53.8001 26.5418 49.6029 26.9723 49.6029 24.4327C49.6029 22.8272 51.1642 22.0171 52.9606 22.0171C54.3106 21.9815 55.5766 22.5849 56.268 23.5934L54.0603 24.6005C53.8611 24.2068 53.4135 23.9522 52.9187 23.951C52.4822 23.951 52.2135 24.097 52.2135 24.367C52.2471 25.2063 56.4107 24.6443 56.4107 27.3664Z" fill="#9893A3" fill-opacity="0.6"/>
<path d="M65.6786 22.2141V29.5703H63.1602V28.8843C62.566 29.5026 61.6673 29.8363 60.7427 29.7819C59.0638 29.7819 57.578 28.7238 57.578 26.7315V22.2141H60.0963V26.4104C60.0514 26.7725 60.1964 27.133 60.491 27.3919C60.7856 27.6509 61.1986 27.7809 61.6157 27.7459C62.5391 27.7459 63.1854 27.2788 63.1854 26.2352V22.2141H65.6786Z" fill="#9893A3" fill-opacity="0.6"/>
<path d="M80.2354 25.0601V29.5702H77.7171V25.2499C77.7171 24.5201 77.3058 24.0384 76.4999 24.0384C75.6941 24.0384 75.1736 24.5566 75.1736 25.425V29.5702H72.6553V25.2499C72.6553 24.5201 72.2524 24.0384 71.4381 24.0384C70.6238 24.0384 70.1202 24.5566 70.1202 25.425V29.5702H67.6019V22.214H70.1202V22.8927C70.6549 22.2836 71.5079 21.9513 72.3867 22.0096C73.2702 21.9723 74.1114 22.3408 74.6028 22.9802C75.1738 22.3121 76.0994 21.9457 77.054 22.0096C78.9679 22.0096 80.2354 23.2211 80.2354 25.0601Z" fill="#9893A3" fill-opacity="0.6"/>
<path d="M82.3852 22.1703C83.4237 22.1703 84.2655 21.4384 84.2655 20.5356C84.2655 19.6328 83.4237 18.9009 82.3852 18.9009C81.3467 18.9009 80.5048 19.6328 80.5048 20.5356C80.5048 21.4384 81.3467 22.1703 82.3852 22.1703Z" fill="#9893A3" fill-opacity="0.6"/>
<path d="M24.5862 14.3007C28.4522 14.3007 31.5862 11.246 31.5862 7.4777C31.5862 3.70944 28.4522 0.654663 24.5862 0.654663C20.7202 0.654663 17.5862 3.70944 17.5862 7.4777C17.5862 11.246 20.7202 14.3007 24.5862 14.3007Z" fill="#9893A3" fill-opacity="0.4"/>
<path d="M42.0157 14.3007C45.8817 14.3007 49.0157 11.246 49.0157 7.4777C49.0157 3.70944 45.8817 0.654663 42.0157 0.654663C38.1497 0.654663 35.0157 3.70944 35.0157 7.4777C35.0157 11.246 38.1497 14.3007 42.0157 14.3007Z" fill="#CFCFDE" fill-opacity="0.5"/>
<rect x="0.156311" y="0.654663" width="14" height="13.6461" fill="#9893A3" fill-opacity="0.5"/>
</svg>
