<svg width="101" height="25" viewBox="0 0 101 25" fill="none" xmlns="http://www.w3.org/2000/svg">
<path fill-rule="evenodd" clip-rule="evenodd" d="M1.31792 11.2873C2.60974 5.18565 7.27236 0.902588 12.6229 0.902588C17.9735 0.902588 22.6361 5.18565 23.9279 11.2873H22.9068C21.1842 11.2575 19.4969 11.8625 18.0818 13.0173C18.0002 13.0868 17.9149 13.1502 17.8265 13.2073H17.7074C17.619 13.1502 17.5338 13.0868 17.4521 13.0173C14.532 10.7098 10.7138 10.7098 7.79372 13.0173C7.71206 13.0868 7.62679 13.1502 7.53843 13.2073H7.4193C7.33094 13.1502 7.24567 13.0868 7.16401 13.0173C5.74898 11.8625 4.06168 11.2575 2.33907 11.2873H1.31792ZM21.0695 17.5573C21.5937 17.0776 22.2434 16.8266 22.9075 16.8473H24.2776V13.6373H22.9075C21.7377 13.6207 20.5945 14.0486 19.6484 14.8573C18.5554 15.8042 17.0651 15.8042 15.9722 14.8573C13.9852 13.2319 11.3472 13.2319 9.36025 14.8573C8.26732 15.8042 6.77703 15.8042 5.68411 14.8573C4.72626 14.0382 3.56674 13.6098 2.38238 13.6373H0.969788V16.8473H2.33983C3.00401 16.8266 3.65371 17.0776 4.17791 17.5573C6.16145 19.1839 8.79782 19.1839 10.7814 17.5573C11.3062 17.079 11.9555 16.8283 12.6194 16.8473C13.2838 16.8249 13.934 17.0761 14.4575 17.5573C16.4445 19.1827 19.0825 19.1827 21.0695 17.5573ZM22.9075 22.5873C22.2434 22.5666 21.5937 22.8176 21.0695 23.2973C19.0825 24.9227 16.4445 24.9227 14.4575 23.2973C13.934 22.8161 13.2838 22.5649 12.6194 22.5873C11.9555 22.5683 11.3062 22.819 10.7814 23.2973C8.79782 24.9239 6.16145 24.9239 4.17791 23.2973C3.65371 22.8176 3.00401 22.5666 2.33983 22.5873H0.969788V19.3773H2.38238C3.56674 19.3498 4.72626 19.7782 5.68411 20.5973C6.77703 21.5442 8.26732 21.5442 9.36025 20.5973C11.3472 18.9719 13.9852 18.9719 15.9722 20.5973C17.0651 21.5442 18.5554 21.5442 19.6484 20.5973C20.5945 19.7886 21.7377 19.3607 22.9075 19.3773H24.2776V22.5873H22.9075Z" fill="#9893A3" fill-opacity="0.6"/>
<path d="M35.102 20.1372C34.0487 20.1372 33.282 19.8039 32.802 19.1372C32.322 18.4572 32.082 17.4906 32.082 16.2372V10.0772H34.382V15.9372C34.382 16.7506 34.502 17.3239 34.742 17.6572C34.982 17.9906 35.3687 18.1572 35.902 18.1572C36.3287 18.1572 36.702 18.0506 37.022 17.8372C37.3553 17.6239 37.7087 17.2772 38.082 16.7972V10.0772H40.382V19.8972H38.502L38.322 18.4572H38.262C37.8353 18.9639 37.3687 19.3706 36.862 19.6772C36.3687 19.9839 35.782 20.1372 35.102 20.1372Z" fill="#9893A3" fill-opacity="0.6"/>
<path d="M42.2953 19.8972V10.0772H44.1953L44.3553 11.4172H44.4353C44.8486 10.9772 45.2953 10.6039 45.7753 10.2972C46.2686 9.99056 46.8219 9.83722 47.4353 9.83722C48.1553 9.83722 48.7286 9.99056 49.1553 10.2972C49.5953 10.6039 49.9286 11.0372 50.1553 11.5972C50.6219 11.0906 51.1086 10.6706 51.6153 10.3372C52.1219 10.0039 52.6886 9.83722 53.3153 9.83722C54.3553 9.83722 55.1219 10.1772 55.6153 10.8572C56.1086 11.5239 56.3553 12.4839 56.3553 13.7372V19.8972H54.0353V14.0372C54.0353 13.2239 53.9086 12.6506 53.6553 12.3172C53.4153 11.9839 53.0419 11.8172 52.5353 11.8172C51.9219 11.8172 51.2353 12.2239 50.4753 13.0372V19.8972H48.1753V14.0372C48.1753 13.2239 48.0486 12.6506 47.7953 12.3172C47.5553 11.9839 47.1753 11.8172 46.6553 11.8172C46.0419 11.8172 45.3553 12.2239 44.5953 13.0372V19.8972H42.2953Z" fill="#9893A3" fill-opacity="0.6"/>
<path d="M62.9107 20.1372C62.4574 20.1372 61.9974 20.0306 61.5307 19.8172C61.0774 19.5906 60.6441 19.2706 60.2307 18.8572H60.1707L59.9707 19.8972H58.1507V5.77722H60.4507V9.41722L60.3907 11.0572C60.8041 10.6972 61.2507 10.4039 61.7307 10.1772C62.2241 9.95056 62.7241 9.83722 63.2307 9.83722C63.8441 9.83722 64.3907 9.95722 64.8707 10.1972C65.3507 10.4239 65.7574 10.7572 66.0907 11.1972C66.4241 11.6239 66.6774 12.1439 66.8507 12.7572C67.0241 13.3706 67.1107 14.0572 67.1107 14.8172C67.1107 15.6572 66.9907 16.4106 66.7507 17.0772C66.5241 17.7306 66.2174 18.2839 65.8307 18.7372C65.4441 19.1906 64.9974 19.5372 64.4907 19.7772C63.9841 20.0172 63.4574 20.1372 62.9107 20.1372ZM62.4307 18.2372C63.0841 18.2372 63.6307 17.9572 64.0707 17.3972C64.5107 16.8239 64.7307 15.9772 64.7307 14.8572C64.7307 13.8706 64.5641 13.1039 64.2307 12.5572C63.8974 12.0106 63.3574 11.7372 62.6107 11.7372C61.9174 11.7372 61.1974 12.1039 60.4507 12.8372V17.4172C60.7974 17.7239 61.1374 17.9372 61.4707 18.0572C61.8174 18.1772 62.1374 18.2372 62.4307 18.2372Z" fill="#9893A3" fill-opacity="0.6"/>
<path d="M68.4203 19.8972V10.0772H70.3203L70.4803 11.8172H70.5603C70.9069 11.1772 71.3269 10.6906 71.8203 10.3572C72.3136 10.0106 72.8203 9.83722 73.3403 9.83722C73.8069 9.83722 74.1803 9.90389 74.4603 10.0372L74.0603 12.0372C73.8869 11.9839 73.7269 11.9439 73.5803 11.9172C73.4336 11.8906 73.2536 11.8772 73.0403 11.8772C72.6536 11.8772 72.2469 12.0306 71.8203 12.3372C71.3936 12.6306 71.0269 13.1506 70.7203 13.8972V19.8972H68.4203Z" fill="#9893A3" fill-opacity="0.6"/>
<path d="M78.8859 20.1372C78.2059 20.1372 77.5726 20.0239 76.9859 19.7972C76.3992 19.5572 75.8859 19.2172 75.4459 18.7772C75.0059 18.3372 74.6592 17.8039 74.4059 17.1772C74.1659 16.5372 74.0459 15.8106 74.0459 14.9972C74.0459 14.1972 74.1726 13.4772 74.4259 12.8372C74.6792 12.1972 75.0126 11.6572 75.4259 11.2172C75.8526 10.7772 76.3392 10.4372 76.8859 10.1972C77.4326 9.95722 77.9926 9.83722 78.5659 9.83722C79.2326 9.83722 79.8192 9.95056 80.3259 10.1772C80.8326 10.4039 81.2526 10.7239 81.5859 11.1372C81.9326 11.5506 82.1926 12.0439 82.3659 12.6172C82.5392 13.1906 82.6259 13.8172 82.6259 14.4972C82.6259 14.7239 82.6126 14.9372 82.5859 15.1372C82.5726 15.3372 82.5526 15.4972 82.5259 15.6172H76.2859C76.3926 16.4972 76.6992 17.1772 77.2059 17.6572C77.7259 18.1239 78.3859 18.3572 79.1859 18.3572C79.6126 18.3572 80.0059 18.2972 80.3659 18.1772C80.7392 18.0439 81.1059 17.8639 81.4659 17.6372L82.2459 19.0772C81.7792 19.3839 81.2592 19.6372 80.6859 19.8372C80.1126 20.0372 79.5126 20.1372 78.8859 20.1372ZM76.2659 14.0572H80.6259C80.6259 13.2972 80.4592 12.7039 80.1259 12.2772C79.8059 11.8372 79.3059 11.6172 78.6259 11.6172C78.0392 11.6172 77.5259 11.8239 77.0859 12.2372C76.6459 12.6506 76.3726 13.2572 76.2659 14.0572Z" fill="#9893A3" fill-opacity="0.6"/>
<path d="M86.0626 20.1372C85.2359 20.1372 84.6559 19.8906 84.3226 19.3972C83.9893 18.9039 83.8226 18.2306 83.8226 17.3772V5.77722H86.1226V17.4972C86.1226 17.7772 86.1759 17.9772 86.2826 18.0972C86.3893 18.2039 86.5026 18.2572 86.6226 18.2572C86.6759 18.2572 86.7226 18.2572 86.7626 18.2572C86.8159 18.2572 86.8893 18.2439 86.9826 18.2172L87.2826 19.9372C86.9759 20.0706 86.5693 20.1372 86.0626 20.1372Z" fill="#9893A3" fill-opacity="0.6"/>
<path d="M90.4923 20.1372C89.6656 20.1372 89.0856 19.8906 88.7523 19.3972C88.419 18.9039 88.2523 18.2306 88.2523 17.3772V5.77722H90.5523V17.4972C90.5523 17.7772 90.6056 17.9772 90.7123 18.0972C90.819 18.2039 90.9323 18.2572 91.0523 18.2572C91.1056 18.2572 91.1523 18.2572 91.1923 18.2572C91.2456 18.2572 91.319 18.2439 91.4123 18.2172L91.7123 19.9372C91.4056 20.0706 90.999 20.1372 90.4923 20.1372Z" fill="#9893A3" fill-opacity="0.6"/>
<path d="M95.062 20.1372C94.1953 20.1372 93.4953 19.8772 92.962 19.3572C92.4287 18.8239 92.162 18.1239 92.162 17.2572C92.162 16.7372 92.2687 16.2772 92.482 15.8772C92.7086 15.4639 93.0553 15.1106 93.522 14.8172C94.002 14.5239 94.602 14.2772 95.322 14.0772C96.0553 13.8772 96.9286 13.7239 97.942 13.6172C97.9286 13.3639 97.8886 13.1239 97.822 12.8972C97.7686 12.6572 97.6687 12.4506 97.522 12.2772C97.3887 12.0906 97.2087 11.9506 96.982 11.8572C96.7553 11.7506 96.4753 11.6972 96.142 11.6972C95.662 11.6972 95.1887 11.7906 94.722 11.9772C94.2687 12.1639 93.822 12.3906 93.382 12.6572L92.542 11.1172C93.0886 10.7706 93.702 10.4706 94.382 10.2172C95.062 9.96389 95.7953 9.83722 96.582 9.83722C97.8087 9.83722 98.722 10.2039 99.322 10.9372C99.9353 11.6572 100.242 12.7039 100.242 14.0772V19.8972H98.342L98.182 18.8172H98.102C97.662 19.1906 97.1887 19.5039 96.682 19.7572C96.1887 20.0106 95.6486 20.1372 95.062 20.1372ZM95.802 18.3372C96.202 18.3372 96.562 18.2439 96.882 18.0572C97.2153 17.8706 97.5686 17.6039 97.942 17.2572V15.0572C97.2753 15.1372 96.7153 15.2439 96.262 15.3772C95.8087 15.5106 95.442 15.6639 95.162 15.8372C94.882 15.9972 94.682 16.1839 94.562 16.3972C94.442 16.6106 94.382 16.8372 94.382 17.0772C94.382 17.5172 94.5153 17.8372 94.782 18.0372C95.0486 18.2372 95.3887 18.3372 95.802 18.3372Z" fill="#9893A3" fill-opacity="0.6"/>
</svg>
